<svg width="18" height="20" viewBox="0 0 18 20" fill="none" xmlns="http://www.w3.org/2000/svg">
<path fill-rule="evenodd" clip-rule="evenodd" d="M13.565 4.0023C14.1684 4.60551 14.647 5.32168 14.9736 6.1099C15.3001 6.89812 15.4682 7.74295 15.4682 8.59614C15.4682 9.44932 15.3001 10.2942 14.9736 11.0824C14.647 11.8706 14.1684 12.5868 13.565 13.19L8.97117 17.7812L4.37733 13.1887C3.77406 12.5854 3.29552 11.8692 2.96903 11.081C2.64254 10.2928 2.4745 9.44799 2.4745 8.59484C2.4745 7.74168 2.64254 6.89688 2.96903 6.10867C3.29552 5.32046 3.77406 4.60427 4.37733 4.001C4.9806 3.39773 5.69679 2.91919 6.485 2.5927C7.27322 2.26621 8.11802 2.09817 8.97117 2.09817C9.82433 2.09817 10.6691 2.26621 11.4573 2.5927C12.2456 2.91919 12.9617 3.39773 13.565 4.001V4.0023ZM14.9421 14.5671C16.1232 13.3861 16.9275 11.8814 17.2534 10.2433C17.5793 8.60524 17.4121 6.90729 16.773 5.36421C16.1339 3.82112 15.0515 2.50222 13.6628 1.57429C12.2741 0.64636 10.6414 0.151077 8.97117 0.151077C7.30097 0.151077 5.66827 0.64636 4.27955 1.57429C2.89084 2.50222 1.80848 3.82112 1.16935 5.36421C0.530223 6.90729 0.363034 8.60524 0.688927 10.2433C1.01482 11.8814 1.81916 13.3861 3.00022 14.5671L7.59276 19.1609C7.77373 19.342 7.98862 19.4857 8.22513 19.5837C8.46165 19.6817 8.71515 19.7321 8.97117 19.7321C9.22719 19.7321 9.4807 19.6817 9.71721 19.5837C9.95373 19.4857 10.1686 19.342 10.3496 19.1609L14.9421 14.5671ZM8.97117 11.1945C9.66029 11.1945 10.3212 10.9207 10.8085 10.4334C11.2957 9.94615 11.5695 9.28525 11.5695 8.59614C11.5695 7.90702 11.2957 7.24612 10.8085 6.75884C10.3212 6.27156 9.66029 5.99781 8.97117 5.99781C8.28205 5.99781 7.62116 6.27156 7.13388 6.75884C6.6466 7.24612 6.37285 7.90702 6.37285 8.59614C6.37285 9.28525 6.6466 9.94615 7.13388 10.4334C7.62116 10.9207 8.28205 11.1945 8.97117 11.1945Z" fill="white"/>
</svg>
