<svg width="16" height="22" viewBox="0 0 16 22" fill="none" xmlns="http://www.w3.org/2000/svg">
<path fill-rule="evenodd" clip-rule="evenodd" d="M0.176149 3.90894C0.176149 3.04754 0.518338 2.22142 1.12744 1.61232C1.73654 1.00322 2.56266 0.661034 3.42406 0.661034L14.7917 0.661034C15.0501 0.661034 15.298 0.76369 15.4807 0.946421C15.6634 1.12915 15.7661 1.37699 15.7661 1.63541V17.8749C15.7661 18.1334 15.6634 18.3812 15.4807 18.5639C15.298 18.7467 15.0501 18.8493 14.7917 18.8493H11.5438C11.2854 18.8493 11.0376 18.7467 10.8548 18.5639C10.6721 18.3812 10.5695 18.1334 10.5695 17.8749C10.5695 17.6165 10.6721 17.3687 10.8548 17.186C11.0376 17.0032 11.2854 16.9006 11.5438 16.9006H13.8174V14.3022H3.42406C3.16823 14.3023 2.91811 14.3778 2.70505 14.5195C2.492 14.6611 2.3255 14.8625 2.22644 15.0983C2.12737 15.3342 2.10015 15.5941 2.14819 15.8453C2.19622 16.0966 2.31737 16.3281 2.49645 16.5108C2.67735 16.6955 2.77747 16.9445 2.77479 17.203C2.77211 17.4615 2.66685 17.7083 2.48216 17.8892C2.29748 18.0701 2.0485 18.1702 1.79 18.1676C1.5315 18.1649 1.28465 18.0596 1.10375 17.8749C0.508361 17.2681 0.17523 16.4516 0.176149 15.6014V3.90894ZM13.8174 2.60978V12.3535H3.42406C2.96155 12.3535 2.52244 12.4496 2.12489 12.6237V3.90894C2.12489 3.56438 2.26177 3.23393 2.50541 2.99029C2.74905 2.74665 3.0795 2.60978 3.42406 2.60978H13.8174ZM4.07364 16.5758V20.7981C4.07364 20.8584 4.09043 20.9175 4.12214 20.9688C4.15386 21.0201 4.19923 21.0616 4.25318 21.0886C4.30713 21.1155 4.36752 21.1269 4.4276 21.1215C4.48767 21.1161 4.54505 21.0941 4.5933 21.0579L6.47709 19.6457C6.53331 19.6035 6.60169 19.5807 6.67196 19.5807C6.74224 19.5807 6.81062 19.6035 6.86684 19.6457L8.75062 21.0579C8.79888 21.0941 8.85626 21.1161 8.91633 21.1215C8.9764 21.1269 9.0368 21.1155 9.09075 21.0886C9.1447 21.0616 9.19007 21.0201 9.22178 20.9688C9.25349 20.9175 9.27029 20.8584 9.27029 20.7981V16.5758C9.27029 16.4896 9.23607 16.407 9.17516 16.3461C9.11425 16.2852 9.03164 16.251 8.9455 16.251H4.39843C4.31229 16.251 4.22968 16.2852 4.16877 16.3461C4.10786 16.407 4.07364 16.4896 4.07364 16.5758Z" fill="white"/>
</svg>
